<svg width="43" height="20" viewBox="0 0 43 20" fill="none" xmlns="http://www.w3.org/2000/svg">
<path d="M20.3196 17.2039C16.3568 17.2039 14.4176 14.8745 14.4176 11.9412C14.4176 9.00784 17.1156 5.29804 21.0784 5.29804C25.0411 5.29804 26.9803 7.62745 26.9803 10.5608C26.9803 13.4941 24.2823 17.2039 20.3196 17.2039ZM20.4882 13.4941C21.8372 13.4941 22.7647 12.2 22.7647 10.8196C22.7647 9.43922 22.0902 9.09412 20.9098 9.09412C19.7294 9.09412 18.6333 10.3882 18.6333 11.7686C18.6333 13.149 19.3078 13.4941 20.4882 13.4941ZM31.196 16.9451H27.0647L30.4372 1.24314H34.5686L31.196 16.8588V16.9451Z" fill="#FAFAFA"/>
<path fill-rule="evenodd" clip-rule="evenodd" d="M8.09412 17.2039C6.82941 17.2039 5.56471 16.7726 4.8902 15.7373L4.63725 16.9451L0 19.4471L0.505882 16.9451L3.87843 1.24314H8.0098L6.82941 6.76471C7.75686 5.72941 8.68431 5.29804 9.86471 5.29804C12.3941 5.29804 13.9961 6.93725 13.9961 10.0431C13.9961 13.149 12.0569 17.2039 8.09412 17.2039ZM9.69608 10.9059C9.69608 12.3725 8.68431 13.4941 7.33529 13.4941C5.98627 13.4941 5.90196 13.2353 5.48039 12.7176L6.1549 9.87059C6.66078 9.35294 7.16667 9.09412 7.84118 9.09412C8.85294 9.09412 9.69608 9.87059 9.69608 10.9922V10.9059Z" fill="#FAFAFA"/>
<path d="M38.8687 17.2039C36.5079 17.2039 34.7373 16.3412 34.7373 14.3569C34.7373 12.3725 34.7373 13.7529 34.8216 13.4941L35.7491 9.26667H33.8942L34.7373 5.64314H36.5922L37.2667 2.53725L41.904 0.55294L41.3981 2.53725L40.7236 5.64314H43L42.1569 9.26667H39.8804L39.2902 12.0275V12.5451C39.2902 13.0627 39.6275 13.4941 40.302 13.4941C40.9765 13.4941 40.8079 13.4941 40.8922 13.4078V16.7725C40.4706 17.1176 39.7118 17.2039 38.953 17.2039H38.8687Z" fill="#FAFAFA"/>
</svg>
